<svg aria-hidden="true" style="width:0;height:0;position:absolute;overflow:hidden" xmlns="http://www.w3.org/2000/svg"><defs><symbol id="icon-logo" viewBox="0 0 41 32"><path fill="#ffe550" style="fill:var(--color1,#ffe550)" d="M14.151 6.456c1.011-1.982 3.838-1.982 4.849 0l1.28 2.51a2.724 2.724 0 0 0 1.998 1.453l2.774.441c2.197.35 3.072 3.049 1.498 4.625l-1.979 1.983a2.723 2.723 0 0 0-.762 2.372l-.002-.016.437 2.773c.347 2.2-1.941 3.868-3.923 2.859l-2.512-1.278c-.359-.186-.783-.296-1.233-.296s-.874.109-1.248.303l.015-.007-2.512 1.278c-1.982 1.009-4.27-.659-3.923-2.859l.437-2.773a2.725 2.725 0 0 0-.765-2.356l-1.979-1.983c-1.573-1.576-.699-4.276 1.498-4.625l2.774-.441a2.726 2.726 0 0 0 1.998-1.453l1.28-2.51z"/><path fill="#2c2c2c" style="fill:var(--color2,#2c2c2c)" d="m1.117 20.357-.021.005a31 31 0 0 1-.011.9c-.003.524-.004.868-.002 1.032 0 .157-.003.285-.01.384l.001.336a2.28 2.28 0 0 1-.019.296l-.018.206c-.014.13-.042.201-.085.211-.092.022-.235-.049-.431-.212-.197-.17-.311-.319-.341-.447s-.038-1.06-.024-2.798c.021-1.74-.025-2.884-.14-3.432a.418.418 0 0 1 .014-.272c.036-.165.219-.321.55-.467.338-.147.843-.3 1.515-.459.678-.161 1.217-.251 1.615-.27.405-.021.623.032.653.159.02.085-.026.159-.138.223a4.33 4.33 0 0 1-.265.145l-.033.015-.348.138c-.145.049-.28.096-.403.14-.126.037-.288.091-.488.16a18.33 18.33 0 0 0-.761.269l.225-.075c-.166.054-.39.133-.672.237s-.464.169-.547.197c.012.02.023.051.033.093.079.333.122 1.13.129 2.392a10.87 10.87 0 0 0 1.402-.365c.499-.163.805-.258.918-.284.269-.064.416-.039.443.075.052.22-.212.476-.792.77a8.682 8.682 0 0 1-1.951.697zm6.92-1.951a2.013 2.013 0 0 0-.277-.652c-.13-.201-.28-.334-.452-.398-.456.25-.787.728-.993 1.435-.201.698-.236 1.32-.107 1.865s.344.853.644.924c.485-.22.834-.668 1.047-1.347.218-.687.264-1.296.139-1.827zm-2.765.755c.117-.611.331-1.14.643-1.588.317-.456.685-.734 1.102-.833.424-.1.82-.003 1.188.291.366.287.611.689.733 1.206.121.51.121 1.063.001 1.66a3.784 3.784 0 0 1-.714 1.571c-.349.449-.767.731-1.255.846-.36.085-.7-.01-1.019-.286s-.539-.669-.659-1.179c-.122-.517-.129-1.08-.019-1.689zm7.569-1.892a2.013 2.013 0 0 0-.277-.652c-.13-.201-.28-.334-.452-.398-.456.25-.787.728-.993 1.435-.201.698-.236 1.32-.107 1.865s.344.853.644.924c.485-.219.834-.668 1.047-1.347.218-.687.264-1.296.139-1.827zm-2.765.756c.117-.611.331-1.14.643-1.588.317-.456.685-.734 1.102-.833.424-.1.82-.003 1.188.291.366.287.611.689.733 1.206.121.51.121 1.063.001 1.66a3.784 3.784 0 0 1-.714 1.571c-.349.449-.767.731-1.255.846-.36.085-.7-.01-1.019-.286s-.539-.669-.659-1.179c-.122-.517-.129-1.08-.019-1.689zm7.774-6.988c.113-.027.276.047.489.221.218.165.349.34.393.524s.079.729.107 1.635c.026.899.031 1.836.016 2.811-.02 2.188-.111 3.301-.274 3.34-.099.023-.223-.011-.371-.103-.143-.101-.226-.197-.248-.289s-.041-.282-.056-.57c-.525.872-1.046 1.369-1.562 1.491-.311.074-.627-.001-.949-.224-.314-.225-.508-.489-.58-.794-.104-.439-.11-.987-.019-1.644.096-.666.308-1.299.636-1.9s.743-.961 1.245-1.08.923.099 1.263.655c.005-1.586-.077-2.819-.248-3.699-.05-.212.002-.337.158-.374zm.068 5.491c-.09-.382-.234-.689-.43-.919-.189-.232-.376-.326-.559-.283-.304.072-.57.333-.8.784s-.382.943-.457 1.476c-.07.525-.063.964.021 1.319.03.127.1.219.211.275s.229.069.356.039c.276-.065.6-.351.972-.858.38-.509.612-1.057.697-1.645l.002-.135-.013-.053zm6.767-.636c.137.581-.009 1.131-.438 1.651-.431.513-.986.85-1.664 1.011-.671.159-1.267.117-1.788-.127-.522-.25-.82-.531-.893-.843-.05-.212-.012-.334.115-.364.113-.027.376.091.788.352.156.09.352.163.589.22.244.054.486.053.727-.004a2.373 2.373 0 0 0 1.224-.693c.328-.347.457-.669.387-.966-.045-.191-.23-.405-.555-.643s-.674-.45-1.047-.638c-.4-.215-.74-.435-1.062-.677l.021.015c-.326-.244-.511-.455-.552-.632s-.051-.373-.027-.588c.024-.215.067-.379.13-.491.204-.37.565-.751 1.084-1.143.526-.394.987-.637 1.383-.731.205-.048.394-.022.567.079s.277.226.313.375c.017.071-.044.145-.182.223s-.351.188-.638.33a5.259 5.259 0 0 0-.74.422c-.739.504-1.074.901-1.006 1.191.037.156.553.493 1.549 1.013.383.201.746.455 1.087.763.347.299.556.598.626.895zm2.436.534c.032.135.125.183.281.147.269-.064.576-.215.923-.454.352-.248.549-.377.591-.387.127-.03.207.022.239.157.049.205-.107.493-.468.862-.353.368-.703.593-1.049.674-.339.08-.644.055-.913-.076-.271-.138-.43-.306-.477-.504s-.064-.46-.051-.784c.011-.332.035-.767.072-1.307.042-.548.07-1 .083-1.354-.314.156-.527.248-.64.275s-.24-.003-.379-.09c-.134-.095-.214-.196-.239-.302-.04-.17.381-.441 1.263-.815a7.73 7.73 0 0 0-.178-1.607c-.05-.212-.005-.335.137-.369.12-.028.287.014.501.128.212.107.34.256.386.447s.065.542.058 1.052c.394-.131.712-.224.952-.281.424-.1.658-.058.701.126.025.106-.071.222-.287.348-.209.124-.664.348-1.364.67-.016.594-.052 1.28-.107 2.055-.057.769-.067 1.231-.03 1.387zm4.737-5.562c.318-.075.65.018.995.28.344.255.547.514.609.776.06.255.034.538-.079.849.11.086.174.168.193.246.047.198.081.549.103 1.052.029.502.051.829.065.983a3.387 3.387 0 0 1 .05.638c.014.184-.029.287-.128.311-.127.03-.259-.055-.396-.254a3.224 3.224 0 0 1-.344-.838c-.44.949-.928 1.487-1.465 1.614-.325.077-.679.015-1.063-.186-.378-.21-.602-.463-.672-.761-.1-.425-.069-.986.095-1.682.162-.704.432-1.358.812-1.964s.788-.96 1.226-1.064zm.93 1.754c-.156-.659-.364-.957-.626-.895-.276.065-.55.34-.824.823-.275.476-.482.993-.619 1.548s-.171.979-.103 1.269a.37.37 0 0 0 .219.262.603.603 0 0 0 .375.023c.332-.079.654-.39.965-.935.31-.552.47-1.169.48-1.852-.004-.111.041-.189.135-.234l-.002-.011z"/><path fill="#bbf330" style="fill:var(--color3,#bbf330)" d="M30.777 19.973a.917.917 0 0 0-.642.602c-1.907 5.65-7.248 9.719-13.543 9.719a14.241 14.241 0 0 1-9.847-3.935.912.912 0 0 0-.846-.232c-.639.158-.881.934-.407 1.392a15.935 15.935 0 0 0 11.099 4.48c7.082 0 13.089-4.605 15.192-10.986.206-.626-.368-1.199-1.007-1.041zM1.868 14.15a.908.908 0 0 0 .666-.725c1.212-6.664 7.044-11.72 14.059-11.72 4.562 0 8.623 2.137 11.239 5.464.22.279.579.414.924.328.584-.144.848-.825.479-1.301-2.926-3.771-7.5-6.198-12.641-6.198C8.708-.002 2.155 5.709.841 13.223c-.104.592.445 1.07 1.028.926zM40.64 5.331c-3.779 7.241-5.439 2.465-10.759 5.271.532-8.406 6.167-3.291 10.759-5.271z"/></symbol><symbol id="icon-menu-open" viewBox="0 0 32 32"><path d="M2.666 8c0-.737.597-1.334 1.334-1.334h24a1.334 1.334 0 1 1 0 2.668H4A1.334 1.334 0 0 1 2.666 8zm0 8.042A1.335 1.335 0 0 1 4 14.709h24l.039-.001a1.334 1.334 0 1 1 0 2.668l-.041-.001H28 4a1.334 1.334 0 0 1-1.334-1.334zM4 22.752a1.334 1.334 0 0 0-.002 2.666H28l.039.001a1.334 1.334 0 1 0 0-2.668l-.041.001H28 4z"/></symbol><symbol id="icon-menu-close" viewBox="0 0 30 32"><path d="m16.219 14.826 4.928-4.923a1.013 1.013 0 0 0-1.431-1.428l.001-.001-4.927 4.874-4.959-4.955a1.014 1.014 0 0 0-1.427 1.429l-.001-.002 4.948 5.006-4.847 4.782a1.013 1.013 0 1 0 1.429 1.43l.001-.001 4.836-4.832 4.806 4.801a1.014 1.014 0 0 0 1.427-1.429l.001.002-4.785-4.751z"/></symbol><symbol id="icon-modal-close" viewBox="0 0 30 32"><path d="m16.219 14.826 4.928-4.923a1.013 1.013 0 0 0-1.431-1.428l.001-.001-4.927 4.874-4.959-4.955a1.014 1.014 0 0 0-1.427 1.429l-.001-.002 4.948 5.006-4.847 4.782a1.013 1.013 0 1 0 1.429 1.43l.001-.001 4.836-4.832 4.806 4.801a1.014 1.014 0 0 0 1.427-1.429l.001.002-4.785-4.751z"/></symbol><symbol id="icon-delivery" viewBox="0 0 32 32"><path d="m7.233 13.633 3.534 1.5c.4-.8.827-1.588 1.283-2.366s.939-1.522 1.45-2.234L10.867 10l-3.634 3.633zm5.134 2.7 4.433 4.434a25.986 25.986 0 0 0 3.663-2.027l-.096.06c1.11-.733 2.01-1.444 2.7-2.133 1.8-1.8 3.122-3.645 3.966-5.534s1.3-4.022 1.367-6.4c-2.378.067-4.511.523-6.4 1.367s-3.733 2.167-5.533 3.967c-.69.689-1.4 1.589-2.134 2.7a25.405 25.405 0 0 0-1.899 3.404l-.067.162zm7.633-3.2c-.444-.444-.667-.994-.667-1.65 0-.655.223-1.205.667-1.65s.994-.666 1.65-.666 1.206.222 1.65.666c.444.445.667.995.667 1.65s-.223 1.206-.667 1.65c-.444.445-.994.667-1.65.667s-1.206-.222-1.65-.667zM19.5 25.9l3.633-3.633-.533-2.634c-.711.512-1.456.995-2.233 1.45A40.49 40.49 0 0 1 18 22.367l1.5 3.533zM30.367 2.767c.2 3.022-.178 5.777-1.134 8.266-.955 2.49-2.533 4.834-4.733 7.034l-.067.066-.066.067.733 3.667c.067.333.05.655-.05.966-.1.312-.272.59-.517.834l-5.7 5.733L16 22.8l-5.667-5.667-6.6-2.833 5.734-5.7c.244-.244.522-.417.833-.517s.633-.116.967-.05l3.666.734a.247.247 0 0 1 .066-.049L15 8.717a.26.26 0 0 0 .067-.05c2.2-2.2 4.544-3.784 7.033-4.75s5.244-1.35 8.267-1.15zm-24.4 18.4c.777-.778 1.727-1.173 2.85-1.184 1.122-.01 2.072.373 2.85 1.15.777.778 1.16 1.728 1.15 2.85-.011 1.123-.406 2.073-1.184 2.85-.577.578-1.472 1.056-2.683 1.434S5.922 29 3.5 29.333c.333-2.422.683-4.244 1.05-5.466s.839-2.123 1.417-2.7zm1.4 1.433c-.311.333-.59.856-.834 1.567S6.078 25.789 5.9 26.9c1.111-.178 2.022-.389 2.733-.633.711-.245 1.234-.523 1.567-.834.422-.377.639-.85.65-1.416l.001-.061a2.02 2.02 0 0 0-.584-1.423 2.021 2.021 0 0 0-1.423-.584l-.064.001h.003a1.87 1.87 0 0 0-1.414.648l-.002.002z"/></symbol><symbol id="icon-order" viewBox="0 0 32 32"><path d="M15.5 1.333c2.023 0 3.75.706 5.184 2.117 1.433 1.411 2.15 3.128 2.15 5.15a7.34 7.34 0 0 1-.75 3.267 7.432 7.432 0 0 1-2.1 2.588l-.017.012h-1.133V12.8a5.181 5.181 0 0 0 1.47-1.836l.013-.031a5.346 5.346 0 0 0 .517-2.31v-.024.001c0-1.467-.523-2.711-1.567-3.733s-2.3-1.534-3.767-1.534c-1.466 0-2.722.511-3.766 1.534S10.167 7.133 10.167 8.6c0 .822.172 1.6.517 2.333a5.188 5.188 0 0 0 1.472 1.859l.011.008v2.4a7.308 7.308 0 0 1-2.915-2.701l-.018-.032a7.266 7.266 0 0 1-1.067-3.812v-.058.003c0-2.022.717-3.739 2.15-5.15s3.161-2.117 5.183-2.117zm-1.266 28a2.66 2.66 0 0 1-1.067-.216 2.764 2.764 0 0 1-.867-.584l-6.866-6.866L7.3 19.733c.311-.31.661-.55 1.05-.716a1.819 1.819 0 0 1 1.23-.081l-.013-.003 2.6.6V8.667c0-.934.322-1.723.967-2.367.644-.644 1.433-.967 2.366-.967.934 0 1.723.323 2.367.967s.967 1.433.967 2.367V14.4h.866c.111 0 .211.022.3.067s.19.088.3.133l4.934 2.4c.533.244.927.639 1.183 1.183.255.545.328 1.106.217 1.684l-1.2 7.266a2.518 2.518 0 0 1-.929 1.58l-.005.004a2.68 2.68 0 0 1-1.714.616h-8.552zm-.267-2h9.367l1.433-8.3-6.1-3.033h-1.833V8.667c0-.4-.123-.723-.367-.967s-.567-.367-.967-.367-.722.123-.966.367c-.245.244-.367.567-.367.967v13.3l-5.133-1.1-.767.766 5.7 5.7zm9.367 0z"/></symbol><symbol id="icon-star" viewBox="0 0 34 32"><path d="M15.42 1.038c.584-1.384 2.576-1.384 3.16 0L22.028 9.2c.246.582.804.98 1.444 1.032l8.952.706c1.516.12 2.132 1.982.976 2.958l-6.82 5.752a1.666 1.666 0 0 0-.55 1.682l-.002-.011 2.084 8.6c.352 1.456-1.258 2.608-2.556 1.828l-7.664-4.61a1.734 1.734 0 0 0-1.792.004l.008-.004-7.664 4.61c-1.3.78-2.908-.372-2.556-1.828l2.084-8.6a1.663 1.663 0 0 0-.55-1.667l-.003-.002-6.82-5.75c-1.156-.976-.54-2.84.976-2.96l8.952-.704a1.714 1.714 0 0 0 1.44-1.021l.004-.011 3.448-8.164z"/></symbol><symbol id="icon-stars" viewBox="0 0 202 32"><path d="M15.42 1.038c.584-1.384 2.576-1.384 3.16 0L22.028 9.2c.246.582.804.98 1.444 1.032l8.952.706c1.516.12 2.132 1.982.976 2.958l-6.82 5.752a1.666 1.666 0 0 0-.55 1.682l-.002-.011 2.084 8.6c.352 1.456-1.258 2.608-2.556 1.828l-7.664-4.61a1.734 1.734 0 0 0-1.792.004l.008-.004-7.664 4.61c-1.3.78-2.908-.372-2.556-1.828l2.084-8.6a1.663 1.663 0 0 0-.55-1.667l-.003-.002-6.82-5.75c-1.156-.976-.54-2.84.976-2.96l8.952-.704a1.714 1.714 0 0 0 1.44-1.021l.004-.011 3.448-8.164zm42 0c.584-1.384 2.576-1.384 3.16 0L64.028 9.2c.246.582.804.98 1.444 1.032l8.952.706c1.516.12 2.132 1.982.976 2.958l-6.82 5.752a1.666 1.666 0 0 0-.55 1.682l-.002-.011 2.084 8.6c.352 1.456-1.258 2.608-2.556 1.828l-7.664-4.61a1.734 1.734 0 0 0-1.792.004l.008-.004-7.664 4.61c-1.3.78-2.908-.372-2.556-1.828l2.084-8.6a1.663 1.663 0 0 0-.55-1.668l-.003-.002-6.82-5.75c-1.156-.976-.54-2.84.976-2.96l8.952-.704a1.714 1.714 0 0 0 1.44-1.021l.004-.011 3.448-8.164zm42 0c.584-1.384 2.576-1.384 3.16 0l3.448 8.162c.246.582.804.98 1.444 1.032l8.952.706c1.516.12 2.132 1.982.976 2.958l-6.82 5.752a1.666 1.666 0 0 0-.55 1.682l-.002-.011 2.084 8.6c.352 1.456-1.258 2.608-2.556 1.828l-7.664-4.61a1.734 1.734 0 0 0-1.792.004l.008-.004-7.664 4.61c-1.3.78-2.908-.372-2.556-1.828l2.084-8.6a1.665 1.665 0 0 0-.547-1.668l-.003-.002-6.822-5.75c-1.158-.976-.542-2.84.974-2.96l8.952-.704a1.714 1.714 0 0 0 1.44-1.021l.004-.011 3.45-8.164zm42 0c.584-1.384 2.576-1.384 3.16 0l3.448 8.162c.248.582.804.98 1.444 1.032l8.952.706c1.516.12 2.132 1.982.976 2.958l-6.82 5.752a1.666 1.666 0 0 0-.55 1.682l-.002-.011 2.084 8.6c.352 1.456-1.258 2.608-2.556 1.828l-7.664-4.61a1.734 1.734 0 0 0-1.792.004l.008-.004-7.664 4.61c-1.3.78-2.908-.372-2.556-1.828l2.084-8.6a1.666 1.666 0 0 0-.55-1.668l-.003-.002-6.82-5.75c-1.156-.976-.54-2.84.976-2.96l8.952-.704a1.714 1.714 0 0 0 1.44-1.021l.004-.011 3.448-8.164zm42 0c.584-1.384 2.576-1.384 3.16 0l3.448 8.162c.248.582.804.98 1.444 1.032l8.952.706c1.516.12 2.132 1.982.976 2.958l-6.82 5.752a1.666 1.666 0 0 0-.55 1.682l-.002-.011 2.084 8.6c.352 1.456-1.258 2.608-2.556 1.828l-7.664-4.61a1.734 1.734 0 0 0-1.792.004l.008-.004-7.664 4.61c-1.3.78-2.908-.372-2.556-1.828l2.084-8.6a1.666 1.666 0 0 0-.55-1.668l-.003-.002-6.82-5.75c-1.156-.976-.54-2.84.976-2.96l8.952-.704a1.714 1.714 0 0 0 1.44-1.021l.004-.011 3.448-8.164z"/></symbol><symbol id="icon-arrow-left" viewBox="0 0 18 32"><path d="m.48 16.965 14.862 14.16c.239.228.563.368.92.368s.681-.14.921-.369h-.001l.016-.016a1.223 1.223 0 0 0 0-1.779h-.001L3.202 15.996 17.197 2.669a1.223 1.223 0 0 0 0-1.779h-.001L17.18.874c-.239-.228-.563-.368-.92-.368s-.681.14-.921.369h.001L.478 15.035c-.255.243-.413.586-.413.965s.158.722.413.965h.001z"/></symbol><symbol id="icon-arrow-right" viewBox="0 0 18 32"><path d="M17.653 15.035 2.791.875c-.239-.228-.563-.368-.92-.368S1.19.647.95.876h.001L.935.892A1.224 1.224 0 0 0 .934 2.67l13.995 13.333L.934 29.331a1.224 1.224 0 0 0-.001 1.779h.001l.016.016c.239.228.563.368.92.368s.681-.14.921-.369H2.79l14.862-14.16c.255-.243.413-.586.413-.965s-.158-.722-.413-.965z"/></symbol><symbol id="icon-arrow-readmore" viewBox="0 0 19 32"><path d="M17.904 15.594c.228.229.369.544.369.893s-.141.664-.369.893L5.014 30.273c-.229.228-.544.369-.893.369s-.664-.141-.893-.369l-.598-.595c-.23-.229-.372-.546-.372-.896s.142-.667.372-.896l11.398-11.395L2.63 5.089a1.26 1.26 0 0 1 0-1.788l.595-.595c.229-.23.546-.372.896-.372s.667.142.896.372l12.886 12.89z"/></symbol><symbol id="icon-warning" viewBox="0 0 32 32"><path fill="none" stroke="#ff705d" style="stroke:var(--color1,#ff705d)" stroke-linejoin="round" stroke-linecap="round" stroke-width="2.285" d="M16 11.429v6.856m0 8a1.144 1.144 0 1 0-.003-2.286H16a1.144 1.144 0 0 0-.003 2.286H16z"/><path fill="none" stroke="#ff705d" style="stroke:var(--color1,#ff705d)" stroke-linejoin="round" stroke-linecap="round" stroke-width="2.285" d="M18.035 2.4a2.284 2.284 0 0 0-4.06-.012l-.006.013L1.396 27.542a2.285 2.285 0 0 0 2.034 3.314h25.144a2.285 2.285 0 0 0 2.028-3.325l.006.013L18.035 2.397z"/></symbol></defs></svg>