<svg aria-hidden="true" style="position:absolute;width:0;height:0;overflow:hidden" xmlns="http://www.w3.org/2000/svg">
    <defs>
        <symbol id="icon-logo" viewBox="0 0 41 32">
            <path fill="#ffe550" style="fill: var(--color1, #ffe550)"
                d="M14.151 6.456c1.011-1.982 3.838-1.982 4.849 0l1.28 2.51c0.396 0.776 1.138 1.316 1.998 1.453l2.774 0.441c2.197 0.35 3.072 3.049 1.498 4.625l-1.979 1.983c-0.493 0.494-0.798 1.176-0.798 1.93 0 0.15 0.012 0.298 0.036 0.442l-0.002-0.016 0.437 2.773c0.347 2.2-1.941 3.868-3.923 2.859l-2.512-1.278c-0.359-0.186-0.783-0.296-1.233-0.296s-0.874 0.109-1.248 0.303l0.015-0.007-2.512 1.278c-1.982 1.009-4.27-0.659-3.923-2.859l0.437-2.773c0.021-0.128 0.033-0.276 0.033-0.426 0-0.753-0.305-1.436-0.798-1.93l-1.979-1.983c-1.573-1.576-0.699-4.276 1.498-4.625l2.774-0.441c0.859-0.137 1.602-0.677 1.998-1.453l1.28-2.51z">
            </path>
            <path fill="#2c2c2c" style="fill: var(--color2, #2c2c2c)"
                d="M1.117 20.357l-0.021 0.005c0.003 0.074-0.001 0.374-0.011 0.9-0.003 0.524-0.004 0.868-0.002 1.032-0 0.157-0.003 0.285-0.010 0.384 0.001 0.097 0.001 0.209 0.001 0.336-0.001 0.12-0.008 0.219-0.019 0.296l-0.018 0.206c-0.014 0.13-0.042 0.201-0.085 0.211-0.092 0.022-0.235-0.049-0.431-0.212-0.197-0.17-0.311-0.319-0.341-0.447s-0.038-1.060-0.024-2.798c0.021-1.74-0.025-2.884-0.14-3.432-0.025-0.106-0.020-0.197 0.014-0.272 0.036-0.165 0.219-0.321 0.55-0.467 0.338-0.147 0.843-0.3 1.515-0.459 0.678-0.161 1.217-0.251 1.615-0.27 0.405-0.021 0.623 0.032 0.653 0.159 0.020 0.085-0.026 0.159-0.138 0.223-0.068 0.041-0.166 0.095-0.265 0.145l-0.033 0.015c-0.089 0.036-0.205 0.082-0.348 0.138-0.145 0.049-0.28 0.096-0.403 0.14-0.126 0.037-0.288 0.091-0.488 0.16-0.406 0.136-0.584 0.202-0.761 0.269l0.225-0.075c-0.166 0.054-0.39 0.133-0.672 0.237s-0.464 0.169-0.547 0.197c0.012 0.020 0.023 0.051 0.033 0.093 0.079 0.333 0.122 1.13 0.129 2.392 0.443-0.082 0.911-0.204 1.402-0.365 0.499-0.163 0.805-0.258 0.918-0.284 0.269-0.064 0.416-0.039 0.443 0.075 0.052 0.22-0.212 0.476-0.792 0.77-0.573 0.292-1.223 0.525-1.951 0.697zM8.037 18.406c-0.057-0.241-0.149-0.458-0.277-0.652-0.13-0.201-0.28-0.334-0.452-0.398-0.456 0.25-0.787 0.728-0.993 1.435-0.201 0.698-0.236 1.32-0.107 1.865s0.344 0.853 0.644 0.924c0.485-0.22 0.834-0.668 1.047-1.347 0.218-0.687 0.264-1.296 0.139-1.827zM5.272 19.161c0.117-0.611 0.331-1.14 0.643-1.588 0.317-0.456 0.685-0.734 1.102-0.833 0.424-0.1 0.82-0.003 1.188 0.291 0.366 0.287 0.611 0.689 0.733 1.206 0.121 0.51 0.121 1.063 0.001 1.66-0.122 0.59-0.36 1.113-0.714 1.571-0.349 0.449-0.767 0.731-1.255 0.846-0.36 0.085-0.7-0.010-1.019-0.286s-0.539-0.669-0.659-1.179c-0.122-0.517-0.129-1.080-0.019-1.689zM12.841 17.269c-0.057-0.241-0.149-0.458-0.277-0.652-0.13-0.201-0.28-0.334-0.452-0.398-0.456 0.25-0.787 0.728-0.993 1.435-0.201 0.698-0.236 1.32-0.107 1.865s0.344 0.853 0.644 0.924c0.485-0.219 0.834-0.668 1.047-1.347 0.218-0.687 0.264-1.296 0.139-1.827zM10.076 18.025c0.117-0.611 0.331-1.14 0.643-1.588 0.317-0.456 0.685-0.734 1.102-0.833 0.424-0.1 0.82-0.003 1.188 0.291 0.366 0.287 0.611 0.689 0.733 1.206 0.121 0.51 0.121 1.063 0.001 1.66-0.122 0.59-0.36 1.113-0.714 1.571-0.349 0.449-0.767 0.731-1.255 0.846-0.36 0.085-0.7-0.010-1.019-0.286s-0.539-0.669-0.659-1.179c-0.122-0.517-0.129-1.080-0.019-1.689zM17.85 11.037c0.113-0.027 0.276 0.047 0.489 0.221 0.218 0.165 0.349 0.34 0.393 0.524s0.079 0.729 0.107 1.635c0.026 0.899 0.031 1.836 0.016 2.811-0.020 2.188-0.111 3.301-0.274 3.34-0.099 0.023-0.223-0.011-0.371-0.103-0.143-0.101-0.226-0.197-0.248-0.289s-0.041-0.282-0.056-0.57c-0.525 0.872-1.046 1.369-1.562 1.491-0.311 0.074-0.627-0.001-0.949-0.224-0.314-0.225-0.508-0.489-0.58-0.794-0.104-0.439-0.11-0.987-0.019-1.644 0.096-0.666 0.308-1.299 0.636-1.9s0.743-0.961 1.245-1.080 0.923 0.099 1.263 0.655c0.005-1.586-0.077-2.819-0.248-3.699-0.050-0.212 0.002-0.337 0.158-0.374zM17.918 16.528c-0.090-0.382-0.234-0.689-0.43-0.919-0.189-0.232-0.376-0.326-0.559-0.283-0.304 0.072-0.57 0.333-0.8 0.784s-0.382 0.943-0.457 1.476c-0.070 0.525-0.063 0.964 0.021 1.319 0.030 0.127 0.1 0.219 0.211 0.275s0.229 0.069 0.356 0.039c0.276-0.065 0.6-0.351 0.972-0.858 0.38-0.509 0.612-1.057 0.697-1.645l0.002-0.135-0.013-0.053zM24.685 15.892c0.137 0.581-0.009 1.131-0.438 1.651-0.431 0.513-0.986 0.85-1.664 1.011-0.671 0.159-1.267 0.117-1.788-0.127-0.522-0.25-0.82-0.531-0.893-0.843-0.050-0.212-0.012-0.334 0.115-0.364 0.113-0.027 0.376 0.091 0.788 0.352 0.156 0.090 0.352 0.163 0.589 0.22 0.244 0.054 0.486 0.053 0.727-0.004 0.495-0.117 0.903-0.348 1.224-0.693 0.328-0.347 0.457-0.669 0.387-0.966-0.045-0.191-0.23-0.405-0.555-0.643s-0.674-0.45-1.047-0.638c-0.4-0.215-0.74-0.435-1.062-0.677l0.021 0.015c-0.326-0.244-0.511-0.455-0.552-0.632s-0.051-0.373-0.027-0.588c0.024-0.215 0.067-0.379 0.13-0.491 0.204-0.37 0.565-0.751 1.084-1.143 0.526-0.394 0.987-0.637 1.383-0.731 0.205-0.048 0.394-0.022 0.567 0.079s0.277 0.226 0.313 0.375c0.017 0.071-0.044 0.145-0.182 0.223s-0.351 0.188-0.638 0.33c-0.282 0.134-0.528 0.275-0.74 0.422-0.739 0.504-1.074 0.901-1.006 1.191 0.037 0.156 0.553 0.493 1.549 1.013 0.383 0.201 0.746 0.455 1.087 0.763 0.347 0.299 0.556 0.598 0.626 0.895zM27.121 16.426c0.032 0.135 0.125 0.183 0.281 0.147 0.269-0.064 0.576-0.215 0.923-0.454 0.352-0.248 0.549-0.377 0.591-0.387 0.127-0.030 0.207 0.022 0.239 0.157 0.049 0.205-0.107 0.493-0.468 0.862-0.353 0.368-0.703 0.593-1.049 0.674-0.339 0.080-0.644 0.055-0.913-0.076-0.271-0.138-0.43-0.306-0.477-0.504s-0.064-0.46-0.051-0.784c0.011-0.332 0.035-0.767 0.072-1.307 0.042-0.548 0.070-1 0.083-1.354-0.314 0.156-0.527 0.248-0.64 0.275s-0.24-0.003-0.379-0.090c-0.134-0.095-0.214-0.196-0.239-0.302-0.040-0.17 0.381-0.441 1.263-0.815-0.012-0.618-0.071-1.153-0.178-1.607-0.050-0.212-0.005-0.335 0.137-0.369 0.12-0.028 0.287 0.014 0.501 0.128 0.212 0.107 0.34 0.256 0.386 0.447s0.065 0.542 0.058 1.052c0.394-0.131 0.712-0.224 0.952-0.281 0.424-0.1 0.658-0.058 0.701 0.126 0.025 0.106-0.071 0.222-0.287 0.348-0.209 0.124-0.664 0.348-1.364 0.67-0.016 0.594-0.052 1.28-0.107 2.055-0.057 0.769-0.067 1.231-0.030 1.387zM31.858 10.864c0.318-0.075 0.65 0.018 0.995 0.28 0.344 0.255 0.547 0.514 0.609 0.776 0.060 0.255 0.034 0.538-0.079 0.849 0.11 0.086 0.174 0.168 0.193 0.246 0.047 0.198 0.081 0.549 0.103 1.052 0.029 0.502 0.051 0.829 0.065 0.983 0.021 0.152 0.035 0.276 0.043 0.371 0.006 0.088 0.008 0.178 0.007 0.267 0.014 0.184-0.029 0.287-0.128 0.311-0.127 0.030-0.259-0.055-0.396-0.254-0.131-0.208-0.246-0.488-0.344-0.838-0.44 0.949-0.928 1.487-1.465 1.614-0.325 0.077-0.679 0.015-1.063-0.186-0.378-0.21-0.602-0.463-0.672-0.761-0.1-0.425-0.069-0.986 0.095-1.682 0.162-0.704 0.432-1.358 0.812-1.964s0.788-0.96 1.226-1.064zM32.788 12.618c-0.156-0.659-0.364-0.957-0.626-0.895-0.276 0.065-0.55 0.34-0.824 0.823-0.275 0.476-0.482 0.993-0.619 1.548s-0.171 0.979-0.103 1.269c0.028 0.12 0.101 0.208 0.219 0.262 0.116 0.047 0.241 0.055 0.375 0.023 0.332-0.079 0.654-0.39 0.965-0.935 0.31-0.552 0.47-1.169 0.48-1.852-0.004-0.111 0.041-0.189 0.135-0.234l-0.002-0.011z">
            </path>
            <path fill="#bbf330" style="fill: var(--color3, #bbf330)"
                d="M30.777 19.973c-0.303 0.075-0.542 0.306-0.642 0.602-1.907 5.65-7.248 9.719-13.543 9.719-3.817 0-7.284-1.497-9.847-3.935-0.226-0.215-0.544-0.307-0.846-0.232-0.639 0.158-0.881 0.934-0.407 1.392 2.876 2.774 6.788 4.48 11.099 4.48 7.082 0 13.089-4.605 15.192-10.986 0.206-0.626-0.368-1.199-1.007-1.041zM1.868 14.15c0.345-0.085 0.602-0.374 0.666-0.725 1.212-6.664 7.044-11.72 14.059-11.72 4.562 0 8.623 2.137 11.239 5.464 0.22 0.279 0.579 0.414 0.924 0.328 0.584-0.144 0.848-0.825 0.479-1.301-2.926-3.771-7.5-6.198-12.641-6.198-7.886 0-14.439 5.711-15.753 13.225-0.104 0.592 0.445 1.070 1.028 0.926zM40.64 5.331c-3.779 7.241-5.439 2.465-10.759 5.271 0.532-8.406 6.167-3.291 10.759-5.271z">
            </path>
        </symbol>
        <symbol id="icon-menu-open" viewBox="0 0 32 32">
            <path
                d="M2.666 8c0-.737.597-1.334 1.334-1.334h24a1.334 1.334 0 1 1 0 2.668H4A1.334 1.334 0 0 1 2.666 8zm0 8.042A1.335 1.335 0 0 1 4 14.709h24l.039-.001a1.334 1.334 0 1 1 0 2.668l-.041-.001H28 4a1.334 1.334 0 0 1-1.334-1.334zM4 22.752a1.334 1.334 0 0 0-.002 2.666H28l.039.001a1.334 1.334 0 1 0 0-2.668l-.041.001H28 4z" />
        </symbol>
        <symbol id="icon-menu-close" viewBox="0 0 30 32">
            <path
                d="m16.219 14.826 4.928-4.923a1.013 1.013 0 0 0-1.431-1.428l.001-.001-4.927 4.874-4.959-4.955a1.014 1.014 0 0 0-1.427 1.429l-.001-.002 4.948 5.006-4.847 4.782a1.013 1.013 0 1 0 1.429 1.43l.001-.001 4.836-4.832 4.806 4.801a1.014 1.014 0 0 0 1.427-1.429l.001.002-4.785-4.751z" />
        </symbol>
        <symbol id="icon-modal-close" viewBox="0 0 30 32">
            <path
                d="m16.219 14.826 4.928-4.923a1.013 1.013 0 0 0-1.431-1.428l.001-.001-4.927 4.874-4.959-4.955a1.014 1.014 0 0 0-1.427 1.429l-.001-.002 4.948 5.006-4.847 4.782a1.013 1.013 0 1 0 1.429 1.43l.001-.001 4.836-4.832 4.806 4.801a1.014 1.014 0 0 0 1.427-1.429l.001.002-4.785-4.751z" />
        </symbol>
        <symbol id="icon-delivery" viewBox="0 0 32 32">
            <path
                d="M7.233 13.633l3.534 1.5c0.4-0.8 0.827-1.588 1.283-2.366s0.939-1.522 1.45-2.234l-2.633-0.533-3.634 3.633zM12.367 16.333l4.433 4.434c1.383-0.632 2.553-1.289 3.663-2.027l-0.096 0.060c1.11-0.733 2.010-1.444 2.7-2.133 1.8-1.8 3.122-3.645 3.966-5.534s1.3-4.022 1.367-6.4c-2.378 0.067-4.511 0.523-6.4 1.367s-3.733 2.167-5.533 3.967c-0.69 0.689-1.4 1.589-2.134 2.7-0.678 1.014-1.334 2.183-1.899 3.404l-0.067 0.162zM20 13.133c-0.444-0.444-0.667-0.994-0.667-1.65 0-0.655 0.223-1.205 0.667-1.65s0.994-0.666 1.65-0.666 1.206 0.222 1.65 0.666c0.444 0.445 0.667 0.995 0.667 1.65s-0.223 1.206-0.667 1.65c-0.444 0.445-0.994 0.667-1.65 0.667s-1.206-0.222-1.65-0.667zM19.5 25.9l3.633-3.633-0.533-2.634c-0.711 0.512-1.456 0.995-2.233 1.45-0.778 0.456-1.567 0.884-2.367 1.284l1.5 3.533zM30.367 2.767c0.2 3.022-0.178 5.777-1.134 8.266-0.955 2.49-2.533 4.834-4.733 7.034l-0.067 0.066-0.066 0.067 0.733 3.667c0.067 0.333 0.050 0.655-0.050 0.966-0.1 0.312-0.272 0.59-0.517 0.834l-5.7 5.733-2.833-6.6-5.667-5.667-6.6-2.833 5.734-5.7c0.244-0.244 0.522-0.417 0.833-0.517s0.633-0.116 0.967-0.050l3.666 0.734c0.019-0.020 0.041-0.036 0.066-0.049l0.001-0.001c0.026-0.014 0.048-0.030 0.067-0.050l0-0c2.2-2.2 4.544-3.784 7.033-4.75s5.244-1.35 8.267-1.15zM5.967 21.167c0.777-0.778 1.727-1.173 2.85-1.184 1.122-0.010 2.072 0.373 2.85 1.15 0.777 0.778 1.16 1.728 1.15 2.85-0.011 1.123-0.406 2.073-1.184 2.85-0.577 0.578-1.472 1.056-2.683 1.434s-3.028 0.733-5.45 1.066c0.333-2.422 0.683-4.244 1.050-5.466s0.839-2.123 1.417-2.7zM7.367 22.6c-0.311 0.333-0.59 0.856-0.834 1.567s-0.455 1.622-0.633 2.733c1.111-0.178 2.022-0.389 2.733-0.633 0.711-0.245 1.234-0.523 1.567-0.834 0.422-0.377 0.639-0.85 0.65-1.416 0.001-0.018 0.001-0.040 0.001-0.061 0-0.555-0.223-1.057-0.584-1.423l0 0c-0.366-0.361-0.869-0.584-1.423-0.584-0.021 0-0.043 0-0.064 0.001l0.003-0c-0.565 0.001-1.071 0.252-1.414 0.648l-0.002 0.002z">
            </path>
        </symbol>
        <symbol id="icon-order" viewBox="0 0 32 32">
            <path
                d="M15.5 1.333c2.023 0 3.75 0.706 5.184 2.117 1.433 1.411 2.15 3.128 2.15 5.15 0 1.156-0.25 2.244-0.75 3.267-0.515 1.040-1.229 1.91-2.1 2.588l-0.017 0.012h-1.133v-1.667c0.627-0.495 1.128-1.12 1.47-1.836l0.013-0.031c0.326-0.677 0.517-1.471 0.517-2.31 0-0.008-0-0.016-0-0.024v0.001c0-1.467-0.523-2.711-1.567-3.733s-2.3-1.534-3.767-1.534c-1.466 0-2.722 0.511-3.766 1.534s-1.567 2.266-1.567 3.733c0 0.822 0.172 1.6 0.517 2.333 0.355 0.747 0.856 1.372 1.472 1.859l0.011 0.008v2.4c-1.227-0.632-2.223-1.564-2.915-2.701l-0.018-0.032c-0.67-1.086-1.067-2.403-1.067-3.812 0-0.019 0-0.039 0-0.058l-0 0.003c0-2.022 0.717-3.739 2.15-5.15s3.161-2.117 5.183-2.117zM14.234 29.333c-0.378 0-0.734-0.072-1.067-0.216-0.337-0.145-0.624-0.342-0.867-0.584l-6.866-6.866 1.866-1.934c0.311-0.31 0.661-0.55 1.050-0.716 0.214-0.095 0.464-0.151 0.727-0.151 0.174 0 0.343 0.024 0.503 0.070l-0.013-0.003 2.6 0.6v-10.866c0-0.934 0.322-1.723 0.967-2.367 0.644-0.644 1.433-0.967 2.366-0.967 0.934 0 1.723 0.323 2.367 0.967s0.967 1.433 0.967 2.367v5.733h0.866c0.111 0 0.211 0.022 0.3 0.067s0.19 0.088 0.3 0.133l4.934 2.4c0.533 0.244 0.927 0.639 1.183 1.183 0.255 0.545 0.328 1.106 0.217 1.684l-1.2 7.266c-0.106 0.647-0.446 1.2-0.929 1.58l-0.005 0.004c-0.462 0.383-1.061 0.616-1.714 0.616-0.007 0-0.013-0-0.020-0h-8.532zM13.967 27.333h9.367l1.433-8.3-6.1-3.033h-1.833v-7.333c0-0.4-0.123-0.723-0.367-0.967s-0.567-0.367-0.967-0.367-0.722 0.123-0.966 0.367c-0.245 0.244-0.367 0.567-0.367 0.967v13.3l-5.133-1.1-0.767 0.766 5.7 5.7zM23.334 27.333v0z">
            </path>
        </symbol>
        <symbol id="icon-star" viewBox="0 0 34 32">
            <path
                d="M15.42 1.038c.584-1.384 2.576-1.384 3.16 0L22.028 9.2c.246.582.804.98 1.444 1.032l8.952.706c1.516.12 2.132 1.982.976 2.958l-6.82 5.752a1.666 1.666 0 0 0-.55 1.682l-.002-.011 2.084 8.6c.352 1.456-1.258 2.608-2.556 1.828l-7.664-4.61a1.734 1.734 0 0 0-1.792.004l.008-.004-7.664 4.61c-1.3.78-2.908-.372-2.556-1.828l2.084-8.6a1.663 1.663 0 0 0-.55-1.667l-.003-.002-6.82-5.75c-1.156-.976-.54-2.84.976-2.96l8.952-.704a1.714 1.714 0 0 0 1.44-1.021l.004-.011 3.448-8.164z" />
        </symbol>
        <symbol id="icon-stars" viewBox="0 0 202 32">
            <path
                d="M15.42 1.038c0.584-1.384 2.576-1.384 3.16 0l3.448 8.162c0.246 0.582 0.804 0.98 1.444 1.032l8.952 0.706c1.516 0.12 2.132 1.982 0.976 2.958l-6.82 5.752c-0.367 0.308-0.598 0.767-0.598 1.281 0 0.138 0.017 0.272 0.048 0.401l-0.002-0.011 2.084 8.6c0.352 1.456-1.258 2.608-2.556 1.828l-7.664-4.61c-0.255-0.155-0.563-0.247-0.892-0.247s-0.637 0.092-0.9 0.251l0.008-0.004-7.664 4.61c-1.3 0.78-2.908-0.372-2.556-1.828l2.084-8.6c0.029-0.117 0.046-0.251 0.046-0.389 0-0.513-0.231-0.972-0.596-1.278l-0.003-0.002-6.82-5.75c-1.156-0.976-0.54-2.84 0.976-2.96l8.952-0.704c0.649-0.050 1.193-0.456 1.44-1.021l0.004-0.011 3.448-8.164zM57.42 1.038c0.584-1.384 2.576-1.384 3.16 0l3.448 8.162c0.246 0.582 0.804 0.98 1.444 1.032l8.952 0.706c1.516 0.12 2.132 1.982 0.976 2.958l-6.82 5.752c-0.367 0.308-0.598 0.767-0.598 1.281 0 0.138 0.017 0.272 0.048 0.401l-0.002-0.011 2.084 8.6c0.352 1.456-1.258 2.608-2.556 1.828l-7.664-4.61c-0.255-0.155-0.563-0.247-0.892-0.247s-0.637 0.092-0.9 0.251l0.008-0.004-7.664 4.61c-1.3 0.78-2.908-0.372-2.556-1.828l2.084-8.6c0.029-0.117 0.046-0.252 0.046-0.39 0-0.513-0.231-0.972-0.596-1.278l-0.003-0.002-6.82-5.75c-1.156-0.976-0.54-2.84 0.976-2.96l8.952-0.704c0.649-0.050 1.193-0.456 1.44-1.021l0.004-0.011 3.448-8.164zM99.42 1.038c0.584-1.384 2.576-1.384 3.16 0l3.448 8.162c0.246 0.582 0.804 0.98 1.444 1.032l8.952 0.706c1.516 0.12 2.132 1.982 0.976 2.958l-6.82 5.752c-0.367 0.308-0.598 0.767-0.598 1.281 0 0.138 0.017 0.272 0.048 0.401l-0.002-0.011 2.084 8.6c0.352 1.456-1.258 2.608-2.556 1.828l-7.664-4.61c-0.255-0.155-0.563-0.247-0.892-0.247s-0.637 0.092-0.9 0.251l0.008-0.004-7.664 4.61c-1.3 0.78-2.908-0.372-2.556-1.828l2.084-8.6c0.030-0.118 0.047-0.253 0.047-0.392 0-0.512-0.231-0.97-0.594-1.276l-0.003-0.002-6.822-5.75c-1.158-0.976-0.542-2.84 0.974-2.96l8.952-0.704c0.649-0.050 1.193-0.456 1.44-1.021l0.004-0.011 3.45-8.164zM141.42 1.038c0.584-1.384 2.576-1.384 3.16 0l3.448 8.162c0.248 0.582 0.804 0.98 1.444 1.032l8.952 0.706c1.516 0.12 2.132 1.982 0.976 2.958l-6.82 5.752c-0.367 0.308-0.598 0.767-0.598 1.281 0 0.138 0.017 0.272 0.048 0.401l-0.002-0.011 2.084 8.6c0.352 1.456-1.258 2.608-2.556 1.828l-7.664-4.61c-0.255-0.155-0.563-0.247-0.892-0.247s-0.637 0.092-0.9 0.251l0.008-0.004-7.664 4.61c-1.3 0.78-2.908-0.372-2.556-1.828l2.084-8.6c0.029-0.117 0.046-0.252 0.046-0.39 0-0.513-0.232-0.972-0.596-1.278l-0.003-0.002-6.82-5.75c-1.156-0.976-0.54-2.84 0.976-2.96l8.952-0.704c0.649-0.050 1.193-0.456 1.44-1.021l0.004-0.011 3.448-8.164zM183.42 1.038c0.584-1.384 2.576-1.384 3.16 0l3.448 8.162c0.248 0.582 0.804 0.98 1.444 1.032l8.952 0.706c1.516 0.12 2.132 1.982 0.976 2.958l-6.82 5.752c-0.367 0.308-0.598 0.767-0.598 1.281 0 0.138 0.017 0.272 0.048 0.401l-0.002-0.011 2.084 8.6c0.352 1.456-1.258 2.608-2.556 1.828l-7.664-4.61c-0.255-0.155-0.563-0.247-0.892-0.247s-0.637 0.092-0.9 0.251l0.008-0.004-7.664 4.61c-1.3 0.78-2.908-0.372-2.556-1.828l2.084-8.6c0.029-0.117 0.046-0.252 0.046-0.39 0-0.513-0.232-0.972-0.596-1.278l-0.003-0.002-6.82-5.75c-1.156-0.976-0.54-2.84 0.976-2.96l8.952-0.704c0.649-0.050 1.193-0.456 1.44-1.021l0.004-0.011 3.448-8.164z">
            </path>
        </symbol>
        <symbol id="icon-arrow-left" viewBox="0 0 18 32">
            <path
                d="M0.48 16.965l14.862 14.16c0.239 0.228 0.563 0.368 0.92 0.368s0.681-0.14 0.921-0.369l-0.001 0 0.016-0.016c0.236-0.224 0.382-0.54 0.382-0.89s-0.147-0.666-0.382-0.889l-0.001-0-13.995-13.333 13.995-13.327c0.236-0.224 0.382-0.54 0.382-0.89s-0.147-0.666-0.382-0.889l-0.001-0-0.016-0.016c-0.239-0.228-0.563-0.368-0.92-0.368s-0.681 0.14-0.921 0.369l0.001-0-14.862 14.16c-0.255 0.243-0.413 0.586-0.413 0.965s0.158 0.722 0.413 0.965l0.001 0z">
            </path>
        </symbol>
        <symbol id="icon-arrow-right" viewBox="0 0 18 32">
            <path
                d="M17.653 15.035l-14.862-14.16c-0.239-0.228-0.563-0.368-0.92-0.368s-0.681 0.14-0.921 0.369l0.001-0-0.016 0.016c-0.235 0.224-0.382 0.539-0.382 0.889s0.146 0.665 0.381 0.889l0 0 13.995 13.333-13.995 13.328c-0.236 0.224-0.383 0.54-0.383 0.89s0.147 0.666 0.382 0.889l0.001 0 0.016 0.016c0.239 0.228 0.563 0.368 0.92 0.368s0.681-0.14 0.921-0.369l-0.001 0 14.862-14.16c0.255-0.243 0.413-0.586 0.413-0.965s-0.158-0.722-0.413-0.965l-0-0z">
            </path>
        </symbol>
        <symbol id="icon-arrow-readmore" viewBox="0 0 19 32">
            <path
                d="M17.904 15.594c0.228 0.229 0.369 0.544 0.369 0.893s-0.141 0.664-0.369 0.893l-12.89 12.893c-0.229 0.228-0.544 0.369-0.893 0.369s-0.664-0.141-0.893-0.369l0 0-0.598-0.595c-0.23-0.229-0.372-0.546-0.372-0.896s0.142-0.667 0.372-0.896l11.398-11.395-11.398-11.402c-0.229-0.229-0.371-0.545-0.371-0.894s0.142-0.666 0.371-0.894v0l0.595-0.595c0.229-0.23 0.546-0.372 0.896-0.372s0.667 0.142 0.896 0.372l12.886 12.89z">
            </path>
        </symbol>
        <symbol id="icon-warning" viewBox="0 0 32 32">
            <path fill="none" stroke="#ff705d" style="stroke: var(--color1, #ff705d)" stroke-linejoin="round"
                stroke-linecap="round" stroke-miterlimit="4" stroke-width="2.2853"
                d="M16 11.429v6.856M16 26.285c0.017 0.001 0.036 0.001 0.055 0.001 0.632 0 1.144-0.512 1.144-1.144s-0.512-1.144-1.144-1.144c-0.019 0-0.039 0-0.058 0.001l0.003-0c-0.608 0.030-1.089 0.53-1.089 1.143s0.481 1.112 1.086 1.143l0.003 0z">
            </path>
            <path fill="none" stroke="#ff705d" style="stroke: var(--color1, #ff705d)" stroke-linejoin="round"
                stroke-linecap="round" stroke-miterlimit="4" stroke-width="2.2853"
                d="M18.035 2.4c-0.387-0.743-1.152-1.242-2.033-1.242s-1.646 0.499-2.027 1.23l-0.006 0.013-12.573 25.141c-0.154 0.3-0.245 0.654-0.245 1.029 0 1.26 1.020 2.282 2.279 2.285h25.144c1.259-0.004 2.278-1.026 2.278-2.285 0-0.374-0.090-0.728-0.25-1.040l0.006 0.013-12.573-25.147z">
            </path>
            <svg id="icon-stars" width="101" height="16" viewBox="0 0 101 16" fill="none" xmlns="http://www.w3.org/2000/svg">
<g clip-path="url(#clip0_3777_2)">
<path d="M7.71026 0.51869C8.00245 -0.172898 8.99759 -0.172897 9.28978 0.518692L11.0142 4.60057C11.1375 4.89213 11.416 5.09134 11.7357 5.11657L16.2118 5.46986C16.9702 5.52972 17.2777 6.46147 16.6999 6.94875L13.2896 9.82474C13.046 10.0302 12.9396 10.3526 13.014 10.6597L14.0559 14.9599C14.2324 15.6885 13.4274 16.2644 12.7781 15.874L8.94588 13.5695C8.67215 13.4049 8.3279 13.4049 8.05418 13.5695L4.22195 15.874C3.57265 16.2644 2.76757 15.6885 2.9441 14.9599L3.98602 10.6597C4.06044 10.3526 3.95406 10.0302 3.71048 9.82474L0.300104 6.94875C-0.277711 6.46147 0.0298078 5.52972 0.788199 5.46986L5.26436 5.11657C5.58409 5.09134 5.8626 4.89213 5.98577 4.60057L7.71026 0.51869Z" fill="#FFE550"/>
<path d="M28.7103 0.51869C29.0024 -0.172898 29.9976 -0.172897 30.2898 0.518692L32.0142 4.60057C32.1375 4.89213 32.416 5.09134 32.7357 5.11657L37.2118 5.46986C37.9702 5.52972 38.2777 6.46147 37.6999 6.94875L34.2896 9.82474C34.046 10.0302 33.9396 10.3526 34.014 10.6597L35.0559 14.9599C35.2324 15.6885 34.4274 16.2644 33.7781 15.874L29.9459 13.5695C29.6721 13.4049 29.3279 13.4049 29.0542 13.5695L25.222 15.874C24.5727 16.2644 23.7676 15.6885 23.9441 14.9599L24.986 10.6597C25.0604 10.3526 24.9541 10.0302 24.7105 9.82474L21.3001 6.94875C20.7223 6.46147 21.0298 5.52972 21.7882 5.46986L26.2644 5.11657C26.5841 5.09134 26.8626 4.89213 26.9858 4.60057L28.7103 0.51869Z" fill="#FFE550"/>
<path d="M49.7103 0.51869C50.0024 -0.172898 50.9976 -0.172897 51.2898 0.518692L53.0142 4.60057C53.1375 4.89213 53.416 5.09134 53.7357 5.11657L58.2118 5.46986C58.9702 5.52972 59.2777 6.46147 58.6999 6.94875L55.2896 9.82474C55.046 10.0302 54.9396 10.3526 55.014 10.6597L56.0559 14.9599C56.2324 15.6885 55.4274 16.2644 54.7781 15.874L50.9459 13.5695C50.6721 13.4049 50.3279 13.4049 50.0542 13.5695L46.222 15.874C45.5727 16.2644 44.7676 15.6885 44.9441 14.9599L45.986 10.6597C46.0604 10.3526 45.9541 10.0302 45.7105 9.82474L42.3001 6.94875C41.7223 6.46147 42.0298 5.52972 42.7882 5.46986L47.2644 5.11657C47.5841 5.09134 47.8626 4.89213 47.9858 4.60057L49.7103 0.51869Z" fill="#FFE550"/>
<path d="M70.7103 0.51869C71.0024 -0.172898 71.9976 -0.172897 72.2898 0.518692L74.0142 4.60057C74.1375 4.89213 74.416 5.09134 74.7357 5.11657L79.2118 5.46986C79.9702 5.52972 80.2777 6.46147 79.6999 6.94875L76.2896 9.82474C76.046 10.0302 75.9396 10.3526 76.014 10.6597L77.0559 14.9599C77.2324 15.6885 76.4274 16.2644 75.7781 15.874L71.9459 13.5695C71.6721 13.4049 71.3279 13.4049 71.0542 13.5695L67.222 15.874C66.5727 16.2644 65.7676 15.6885 65.9441 14.9599L66.986 10.6597C67.0604 10.3526 66.9541 10.0302 66.7105 9.82474L63.3001 6.94875C62.7223 6.46147 63.0298 5.52972 63.7882 5.46986L68.2644 5.11657C68.5841 5.09134 68.8626 4.89213 68.9858 4.60057L70.7103 0.51869Z" fill="#FFE550"/>
<path d="M91.7103 0.51869C92.0024 -0.172898 92.9976 -0.172897 93.2898 0.518692L95.0142 4.60057C95.1375 4.89213 95.416 5.09134 95.7357 5.11657L100.212 5.46986C100.97 5.52972 101.278 6.46147 100.7 6.94876L97.2896 9.82474C97.046 10.0302 96.9396 10.3526 97.014 10.6597L98.0559 14.9599C98.2324 15.6885 97.4274 16.2644 96.7781 15.874L92.9459 13.5695C92.6721 13.4049 92.3279 13.4049 92.0542 13.5695L88.222 15.874C87.5727 16.2644 86.7676 15.6885 86.9441 14.9599L87.986 10.6597C88.0604 10.3526 87.9541 10.0302 87.7105 9.82474L84.3001 6.94876C83.7223 6.46147 84.0298 5.52972 84.7882 5.46986L89.2644 5.11657C89.5841 5.09134 89.8626 4.89213 89.9858 4.60057L91.7103 0.51869Z" fill="#FFE550"/>
</g>
<defs>
<clipPath id="clip0_3777_2">
<rect width="101" height="16" fill="white"/>
</clipPath>
</defs>
</svg>
        </symbol>
    </defs>
</svg>